<svg id="Layer_1" data-name="Layer 1" xmlns="http://www.w3.org/2000/svg" viewBox="0 0 164.23 157.86">
  <defs>
    <style>
      .cls-1 {
        fill: #fff;
      }

      .cls-2, .cls-3 {
        fill: none;
        stroke: #fff;
      }

      .cls-2 {
        stroke-miterlimit: 10;
      }

      .cls-3 {
        stroke-width: 4px;
      }
    </style>
  </defs>
  <title>avulogo_cs</title>
  <path class="cls-1" d="M127.85,91c-2.56-4.09-5.64-.6-5.64-.6-8.45-6.48-8-18.51-8-18.51,1.54-12.81,9.08-17,9.08-17,7,8,8.59,22.93,8.59,22.93.59,12.45-4,13.22-4,13.22M101,97.89a3.35,3.35,0,0,1-1.28,2.6l-4.05,4.05a24.71,24.71,0,0,0-3.41-3.62c-2.18-2-1.67-3.08-1.67-3.08a2.16,2.16,0,0,1,2.18-2.3,3,3,0,0,1,3,1.79,3.11,3.11,0,0,1,2.73-2C101.26,95.67,101,97.89,101,97.89ZM93.33,123a3.73,3.73,0,0,1,3.41-2.35,3.12,3.12,0,0,1,3,3.24c.13,1.84-1.88,3.42-1.88,3.42A35.86,35.86,0,0,0,93.33,132c-1.16-1.54-5.42-5.72-5.42-5.72a3.94,3.94,0,0,1-1-2.48c.3-3.15,3-2.9,3-2.9A4.18,4.18,0,0,1,93.33,123ZM80.82,119.9c-1-1.79-5.42-5.88-5.42-5.88-2.56-2.22-2.13-4-2.13-4,.34-3.49,3.29-3.45,3.29-3.45,2.9-.26,4.35,2.64,4.35,2.64a4.67,4.67,0,0,1,4.18-2.9,3.74,3.74,0,0,1,3.67,3.84c.21,1.75-1.67,3.55-1.67,3.55C81.93,118.54,80.82,119.9,80.82,119.9ZM72.16,93.11a3.41,3.41,0,0,1,3.54-3.5,4.82,4.82,0,0,1,4.1,2.77,4.42,4.42,0,0,1,4.1-2.94,3.53,3.53,0,0,1,3.62,3.92,5.24,5.24,0,0,1-1.41,3.2c-4.09,4-6.35,6.53-6.35,6.53a55.39,55.39,0,0,0-5.55-5.89C71.69,95,72.16,93.11,72.16,93.11ZM66.7,98.7a6.17,6.17,0,0,1-2,3.62,76,76,0,0,0-6.31,6.36c-1.28-2-6-6.23-6-6.23a5.52,5.52,0,0,1-2-3.93,3.56,3.56,0,0,1,3.67-3.75c2.94-.13,4.35,2.82,4.35,2.82,1.62-3.42,4.31-3,4.31-3A3.87,3.87,0,0,1,66.7,98.7ZM54.15,121.87C49.89,126,49,127,49,127c-1.15-1.45-4.91-4.95-4.91-4.95-1.79-1.67-1.58-3.12-1.58-3.12.26-3.11,2.86-2.9,2.86-2.9A3.75,3.75,0,0,1,49,118.24a3.91,3.91,0,0,1,3.5-2.39,3.13,3.13,0,0,1,3.07,3.24C55.73,120.37,54.15,121.87,54.15,121.87ZM75.83,77.66c-2.26-2.82-7.77-8-7.77-8-3.24-2.82-2.9-5.59-2.9-5.59a4.78,4.78,0,0,1,4.7-4.91c4.78.3,6,3.8,6,3.8a6.45,6.45,0,0,1,5.68-3.93,5.22,5.22,0,0,1,5.12,5.3c.08,2.43-2.52,5-2.52,5ZM63.13,58.57c-6.49,6.55-7.51,7.63-7.51,7.63-1.76-2.45-7-7.23-7-7.23-2.45-2.22-2-4.38-2-4.38a4.17,4.17,0,0,1,4-4.15,6.2,6.2,0,0,1,5.17,3.18,5.42,5.42,0,0,1,4.78-3.3,4.35,4.35,0,0,1,4.27,4.5C65,56.81,63.13,58.57,63.13,58.57ZM45.61,70.52a33.05,33.05,0,0,0-5,4.89A39.68,39.68,0,0,0,36.16,71c-2.39-1.93-2-3.47-2-3.47a2.88,2.88,0,0,1,2.73-3.12,3.94,3.94,0,0,1,3.7,2.27c1.37-2.62,3.53-2.33,3.53-2.33a3.09,3.09,0,0,1,3.13,3.13C47.31,69,45.61,70.52,45.61,70.52ZM64.78,44.59c.08-3.41,3.63-3.58,3.63-3.58a4.66,4.66,0,0,1,4.22,2.85A4.87,4.87,0,0,1,76.73,41a3.64,3.64,0,0,1,3.62,3.92c-.12,2.82-3.67,5.51-3.67,5.51a57.44,57.44,0,0,0-4.13,4.26c-.77-1.49-5-5.25-5-5.25C64.44,46.89,64.78,44.59,64.78,44.59ZM74.89,27.82a4.18,4.18,0,0,1,4.1-4,6.1,6.1,0,0,1,4.79,3.13,5.2,5.2,0,0,1,5.12-3.53c4.61.8,4.27,4.67,4.27,4.67-.46,3.41-3.93,6-3.93,6a60.35,60.35,0,0,0-5.46,5.35,69.45,69.45,0,0,0-5.64-5.92C74.51,30.42,74.89,27.82,74.89,27.82ZM96.06,46.21a6.43,6.43,0,0,1-2.18,3.84,32.51,32.51,0,0,0-4.52,4.44,27.25,27.25,0,0,0-3.67-3.84c-2.9-2.35-2.82-4.22-2.82-4.22a2.85,2.85,0,0,1,2.86-3.16,4.79,4.79,0,0,1,3.67,2.22C91.19,42.76,93,43.18,93,43.18A3,3,0,0,1,96.06,46.21Zm-6.4,31.45a5.32,5.32,0,0,1,4.26-2.9,4,4,0,0,1,3.8,3.84c0,2.13-2.13,3.84-2.13,3.84-4.48,4.22-6,5.8-6,5.8C88.67,86.71,84,82.52,84,82.52c-2.47-2.39-2.18-4-2.18-4a3.6,3.6,0,0,1,3.59-3.63A4.54,4.54,0,0,1,89.66,77.66ZM139.88,76A12.18,12.18,0,0,0,143,63.41,7.74,7.74,0,0,1,140,66s3.08-6.83-2.21-10.33a7,7,0,0,1-3.08,7,38.36,38.36,0,0,0-6.23-11.26s8.88-6.32,13.4,2.22c0,0,4.95-4.53-.6-10,0,0,3.25-1.88,3.59-6.91,0,0-1.28-.69-3.93,1,0,0,3.16-5.37,1.71-10.75L139.71,30s1.71-6-1.2-11L137,23.38s-1.37-8.36-6-11.26a34.93,34.93,0,0,1-7,33.37s-10.76-15.71-2.48-38c0,0-5.2,3.33-7.51,12.37a14,14,0,0,0-2.64-4s-2,5.38,0,13.4a18.46,18.46,0,0,0-3.16-2.73,16.8,16.8,0,0,0,1.28,12.29s-4.87,3.41-2.48,8.7c0,0,4.78-6.23,12.46,2.14,0,0-4.09,2.3-8.36,10.41,0,0-2.65-.17-2.48-4.86,0,0-5.2,1-2.21,9.38,0,0-3.42,1.45-.69,5.63,0,0-4.52,3.5-.94,6.92,0,0,.13-1.6,1.63-1.58,0,0,1.28,0,1.36,1.83,0,0,1.2,15.79,9.64,20a9,9,0,0,0-.25,7.6s-8.62.26-11.1-10.92a25.5,25.5,0,0,0-.93-4.78s-2.31-12-10.76-19.55a16.7,16.7,0,0,1-3.5-3.41,8.4,8.4,0,0,1-1.36-3.93s7,2.65,9.64-1.7c0,0-3.41.08-5-2.56,0,0,5.64.25,6.49-4.52,0,0-4,2.13-4.87-1.71,0,0,6.49.68,7.34-5.72,0,0-3.32.43-4.69-1.37a11.63,11.63,0,0,0,5.89-1.36,26.85,26.85,0,0,1-5.46-6.15,5.74,5.74,0,0,0,3.33.35,9.63,9.63,0,0,0-2.91-5.3s3.59-2.13,2.82-5.71a8.1,8.1,0,0,1-6.49-.34s4.53-1.11,3.76-4.61a8.94,8.94,0,0,1-5.89-3.76s5.29-4.18.68-10.32a19.68,19.68,0,0,0-5.72,3.49L87.22,9.9V9.13L89.79,3.5a12.09,12.09,0,0,0-6,2L81,4.78A10.61,10.61,0,0,0,76.64,0s-2,.77-4.29,4.41l-3,.62A9.31,9.31,0,0,0,62.22,3.5a23.46,23.46,0,0,0,3,6.14s1.14,1.77-1.65,2.91a32.67,32.67,0,0,0-6.94,2.73,2,2,0,0,0-.68,2.1,14.41,14.41,0,0,0,2.67,6.09,2.19,2.19,0,0,0,2.9.28,3.78,3.78,0,0,0,1.2,1.42s.74.52,1.19.12a4.07,4.07,0,0,0,.8-1.6s4.15-.28,5.52,1.82a92.36,92.36,0,0,0-16.45,2s-3.12.74-3.3-2.44c0,0-.11-1.88,2.68-3,0,0-1.48-2.56-5.12-.68,0,0-5.18,3.41-.69,8.53,0,0,1.83,3,7.57,1.25a55.48,55.48,0,0,1,15.48-2.5s0,2.16-5,3a8.19,8.19,0,0,0-1.88-2,5.17,5.17,0,0,0-1.71,2.56,2.52,2.52,0,0,0-2.1,3.07s.4,2,3.41,1.37c0,0,2.28-.51,1.88,1.76,0,0-.06,2.05-4.1,3a6.75,6.75,0,0,1-6.65-2.28s-1,1.6.11,5.07a61.21,61.21,0,0,0-11.66-6.94s-10.7-5.86-10.07-14a7.4,7.4,0,0,0-1.14-6s-2.05-2.73-4.5-2.9A4.58,4.58,0,0,1,26.72,19s.28-5.46-5.18-4.21c0,0-3-5-7.85-2.39a11.78,11.78,0,0,1,2.73,4.27s-6.77.17-3.87,6.66a2.37,2.37,0,0,0-.34,2.33,5.12,5.12,0,0,0-5.23,1,4.51,4.51,0,0,0-.63,6.09A2.67,2.67,0,0,1,8.74,31a2.06,2.06,0,0,1,2,2.22A4,4,0,0,0,12.27,37s3.24,2.1,5.12-1.19c0,0,.8,3.35,3.87,3.13a5.79,5.79,0,0,0,.34,5.17s-.8.51-4.44-.57c0,0,1.65,6.83,9.67,4.5,0,0,2.62,2.84,5-.57,0,0,1.48,3.47,4.21,4.21A12.45,12.45,0,0,1,40,53.91a14.32,14.32,0,0,1,3.81,4.66A53.92,53.92,0,0,0,32.23,65s-5.77,5.59-12.17.48c0,0-2.27-2.39-4.6-1,0,0-5.69-3.81-7.91,2.56,0,0,4.61-1.54,4.78,3.13A6.69,6.69,0,0,0,8.4,69a5.39,5.39,0,0,0-4.49,4A4.33,4.33,0,0,0,0,76.55s-.46,3.92,1.82,4.89a2.64,2.64,0,0,1,1-2.39S4.13,78.54,5,80.3c0,0,2.27,4.16,5.74,1,0,0,.57,1.31,1.71,1.14,0,0-2.84,5.68,3.13,6.48a4.25,4.25,0,0,1,1.53-4.21s1.26,1.54,2.28,1.14c0,0,2.67,0,3.13-4a1.64,1.64,0,0,1,1.54-1.19,2.21,2.21,0,0,0,1.59-.12s-.4,3.87,4,3.3c0,0,2.62-.79,3.59,1.14,0,0,1,2.73-2.39,3.53,0,0,1.47,2.39,5.06.57,0,0,3-1.14,2.27-5.47,0,0,3.19-1.19,2.05-4.32a13.45,13.45,0,0,0,6.26-3.64,2.22,2.22,0,0,1,3.42,0s1.53,2.39-1.77,3.47c0,0,5.52,3.36,7.51-3.41a8.69,8.69,0,0,0,5.24,2.73s-2.39-3.59.85-5.52c0,0,.11,5.86,6.94,6.94,0,0,7.91,1.36,12.35,6.77,0,0-12.92-4.15-24.69,4.21,0,0-4,3.13-6.15,1.36,0,0-2.1-1.31-1.42-5.12,0,0-6,1.43-3,7.29a7.93,7.93,0,0,0-8.42,6.71,31.31,31.31,0,0,1,10.24.28s-.74,1.71.85,5.41c0,0,1.43,3.64-.17,5.29,0,0-1,1.65-5,2.33A30.57,30.57,0,0,0,37,115.69s-1.48-3.87-3.7-4.44a3.59,3.59,0,0,0-3.35.86s-6.66-4.38-8.42,3.41c0,0,2.1-1.71,3.69-.74,0,0-3.07.8-2.33,3.24,0,0-3,.12-2.1,2.73a6.18,6.18,0,0,0-3.87,2.34s-1.94,2.84.05,4.95a4.06,4.06,0,0,1,4.27-1.65s-.91,4.26,3.59,4a2.36,2.36,0,0,0,1.76,2.27s-.8,6,5.75,5.24a5.68,5.68,0,0,1-.74-3.48,1.83,1.83,0,0,1,1.87-1.19A4.94,4.94,0,0,0,39.69,131a4.55,4.55,0,0,1,3.59-2.44,4.85,4.85,0,0,0,4.32,3.13,4.75,4.75,0,0,1,1.59.57,1.58,1.58,0,0,1,0,2.22,2.66,2.66,0,0,0-.57,1.42s5.4.51,4.09-5.63c0,0,3.42-.29,1.88-3.7,0,0,2.39,0,4.61-3.3a4.46,4.46,0,0,1,6.31-.8,7.23,7.23,0,0,0-.79-3.75s-1.08-1.54-.4-4.95a8.73,8.73,0,0,0-.11-6.6,10.08,10.08,0,0,0,8.13-1.83s-1.19,3.13-1.65,4.78c0,0-1,2.85-2.5,3.3a2.65,2.65,0,0,1-2.33-.11s.11,4.38,4,4.1a11.47,11.47,0,0,0-.12,11.77s5.29-.79,6.6-7.68c0,0,1,3.47,6.49,5.24A5.6,5.6,0,0,1,86,130.94a5.11,5.11,0,0,1-2.56,5,3.61,3.61,0,0,0-3.87-2,3.41,3.41,0,0,0-2.84,3.3s-7.51,1.37-4.55,8.19a5.6,5.6,0,0,1,2.9-2.44l.34,1.36s-3.24,1.65-1.25,4.27c0,0-4.21,6,2.67,8.25,0,0-1.31-2-.28-3.47a1.7,1.7,0,0,1,2.39.12,3.46,3.46,0,0,0,4.55.56,5.08,5.08,0,0,0,5.4,3.76,3.36,3.36,0,0,1-.74-3.53,3.12,3.12,0,0,1,3.47-.91,3.41,3.41,0,0,0,4.16-1.76,4.31,4.31,0,0,0-1.2-5.12,5.85,5.85,0,0,0,3.64-4.38s3.19,2.27,4.21-1.48c0,0,2.34.85,1.26,3.69,0,0,7.28-1.53,2.33-8.7,0,0,2.39-3.13-1.76-4a3.82,3.82,0,0,0-1.17-2.76s3.75-1.36,4-5.12c0,0-2,2.36-3.16.43,0,0,5.46-1.54,2.73-7.09,0,0-5.89,4.44-10.49-1.28a7.82,7.82,0,0,0-4.44-2.9,16.45,16.45,0,0,0,9.39-8.19,32.61,32.61,0,0,0,7.16,4.18,26.13,26.13,0,0,1,4.36,2,11.72,11.72,0,0,1,3.58,3.5s4,5.12.09,9.73c0,0,10.41-.26,7-10.84,0,0,7-.77,8.79-7.17a14.86,14.86,0,0,1-5.88.52s2-1.71,2.21-5.81c0,0,9.56-4.1,9.22-12.63,0,0-.34-5.12,2.65-6.4,0,0,1.62-.68,3.5,1.2C143.8,83,146.28,77.15,139.88,76Z"/>
  <line class="cls-2" x1="155.55" y1="0.14" x2="155.55" y2="154.7"/>
  <line class="cls-3" x1="155.55" y1="0.14" x2="155.55" y2="154.7"/>
</svg>
